HIERARCHY
ROOT root
{
	OFFSET 0.000000 0.000000 0.000000
	CHANNELS 6 Xposition Yposition Zposition Zrotation Yrotation Xrotation
	JOINT lhip
	{
		OFFSET 0.058581 -0.082280 -0.017664
		CHANNELS 3 Zrotation Yrotation Xrotation
		JOINT lknee
		{
			OFFSET 0.043451 -0.386469 0.008037
			CHANNELS 3 Zrotation Yrotation Xrotation
			JOINT lankle
			{
				OFFSET -0.014790 -0.426874 -0.037428
				CHANNELS 3 Zrotation Yrotation Xrotation
				JOINT ltoe
				{
					OFFSET 0.041054 -0.060286 0.122042
					CHANNELS 3 Zrotation Yrotation Xrotation
					End Site
					{
						OFFSET 0.000000 0.000000 0.000000
					}
				}
			}
		}
	}
	JOINT rhip
	{
		OFFSET -0.060310 -0.090513 -0.013543
		CHANNELS 3 Zrotation Yrotation Xrotation
		JOINT rknee
		{
			OFFSET -0.043257 -0.383688 -0.004843
			CHANNELS 3 Zrotation Yrotation Xrotation
			JOINT rankle
			{
				OFFSET 0.019056 -0.420046 -0.034562
				CHANNELS 3 Zrotation Yrotation Xrotation
				JOINT rtoe
				{
					OFFSET -0.034840 -0.062106 0.130323
					CHANNELS 3 Zrotation Yrotation Xrotation
					End Site
					{
						OFFSET 0.000000 0.000000 0.000000
					}
				}
			}
		}
	}
	JOINT lowerback
	{
		OFFSET 0.004439 0.124404 -0.038385
		CHANNELS 3 Zrotation Yrotation Xrotation
		JOINT upperback
		{
			OFFSET 0.004488 0.137956 0.026820
			CHANNELS 3 Zrotation Yrotation Xrotation
			JOINT chest
			{
				OFFSET -0.002265 0.056032 0.002855
				CHANNELS 3 Zrotation Yrotation Xrotation
				JOINT lowerneck
				{
					OFFSET -0.013390 0.211636 -0.033468
					CHANNELS 3 Zrotation Yrotation Xrotation
					JOINT upperneck
					{
						OFFSET 0.010113 0.088937 0.050410
						CHANNELS 3 Zrotation Yrotation Xrotation
						End Site
						{
							OFFSET 0.000000 0.000000 0.000000
						}
					}
				}
				JOINT lclavicle
				{
					OFFSET 0.071702 0.114000 -0.018898
					CHANNELS 3 Zrotation Yrotation Xrotation
					JOINT lshoulder
					{
						OFFSET 0.122921 0.045205 -0.019046
						CHANNELS 3 Zrotation Yrotation Xrotation
						JOINT lelbow
						{
							OFFSET 0.255332 -0.015649 -0.022946
							CHANNELS 3 Zrotation Yrotation Xrotation
							JOINT lwrist
							{
								OFFSET 0.265709 0.012698 -0.007375
								CHANNELS 3 Zrotation Yrotation Xrotation
								End Site
								{
									OFFSET 0.000000 0.000000 0.000000
								}
							}
						}
					}
				}
				JOINT rclavicle
				{
					OFFSET -0.082954 0.112472 -0.023707
					CHANNELS 3 Zrotation Yrotation Xrotation
					JOINT rshoulder
					{
						OFFSET -0.113228 0.046853 -0.008472
						CHANNELS 3 Zrotation Yrotation Xrotation
						JOINT relbow
						{
							OFFSET -0.260127 -0.014369 -0.031269
							CHANNELS 3 Zrotation Yrotation Xrotation
							JOINT rwrist
							{
								OFFSET -0.269108 0.006794 -0.006027
								CHANNELS 3 Zrotation Yrotation Xrotation
								End Site
								{
									OFFSET 0.000000 0.000000 0.000000
								}
							}
						}
					}
				}
			}
		}
	}
}
MOTION
Frames: 10
Frame Time: 0.033333
-0.390564 1.370839 0.983218 86.547703 -1.471670 79.965575 3.782736 -1.382292 -13.345424 -2.526491 -8.406900 5.516117 -3.711276 3.952361 -8.064540 0.000000 -0.000000 0.000000 -1.098540 -5.493360 14.604578 1.815350 3.227676 15.900031 0.898828 -5.069371 -21.169199 0.000000 -0.000000 0.000000 0.978716 3.814360 16.721461 1.705687 -2.813754 0.930356 0.110582 -0.283338 3.637975 2.497984 3.032301 10.913630 -2.369472 -2.043563 19.158606 -28.931883 4.946646 2.187092 -58.231559 -5.542530 8.938892 9.938723 -26.909696 4.393767 -2.850402 -3.362896 -6.187648 27.072265 -0.060302 2.464101 55.086317 6.675294 11.541691 -14.383690 24.069803 -8.974902 4.466052 4.579120 -8.039521 
-0.369668 1.374948 0.979599 86.081041 -1.599896 79.940977 3.771694 -1.856206 -12.195136 -3.256566 -10.036811 3.519891 -5.970922 1.917250 -5.501074 0.000000 -0.000000 0.000000 -1.392603 -4.955453 15.317954 1.459278 3.710920 17.239128 1.104602 -5.185498 -21.633985 0.000000 -0.000000 0.000000 0.770586 4.008776 16.431924 1.778053 -2.743467 1.244052 0.044701 -0.242692 3.301506 2.578676 3.238188 11.091881 -2.417344 -2.187817 18.948747 -29.061547 4.987237 2.150588 -57.942964 -5.268964 8.874561 9.857783 -25.343667 4.103291 -2.923973 -3.563303 -6.722710 27.066067 -0.087172 2.549607 54.754083 6.471568 11.530154 -14.886174 24.405846 -9.545005 4.417839 4.721408 -8.649053 
-0.347009 1.380788 0.976343 85.668872 -1.742476 79.973720 3.170752 -3.659154 -11.492807 -3.794861 -11.908543 5.808357 -6.354069 1.245830 -5.321470 0.000000 -0.000000 0.000000 -1.864236 -4.490624 15.530314 1.260590 4.225514 19.488394 1.500998 -5.572265 -21.841190 0.000000 -0.000000 0.000000 0.915157 4.179113 15.862514 1.702590 -2.791645 1.343838 -0.272951 -0.262204 3.340924 2.696895 3.268766 11.165642 -2.609378 -2.111966 18.719071 -29.223322 5.137845 1.821124 -57.528399 -4.857119 8.903629 9.732496 -24.145088 4.050865 -3.207300 -3.192084 -6.895736 27.187616 -0.448766 2.459182 54.422620 6.185596 11.648534 -15.392136 24.848064 -9.836431 4.299417 4.408788 -8.729242 
-0.323833 1.386611 0.974852 85.283752 -1.879623 79.723153 1.905582 -3.654323 -10.065365 -2.993202 -13.589218 5.229359 -5.674223 0.248316 0.309891 0.000000 -0.000000 0.000000 -2.029864 -3.812003 15.363135 0.651642 4.403495 22.868324 2.022270 -5.657124 -21.121296 0.000000 -0.000000 0.000000 0.574356 4.138070 15.790238 1.859159 -2.546639 1.622482 -0.297412 -0.270310 3.112255 2.799490 3.259814 11.142545 -2.721537 -1.906868 18.457597 -29.288925 5.322374 1.602651 -57.240573 -4.694107 8.876351 9.572282 -23.221720 4.039097 -3.885781 -2.824207 -7.000969 27.367946 -0.670937 2.432323 54.174493 5.988772 11.682019 -16.424240 25.057276 -11.102044 4.172215 4.707153 -8.819090 
-0.299654 1.392625 0.975999 85.840950 -1.799840 79.501937 1.021582 -3.756328 -9.539549 -3.009075 -13.566831 6.172767 -3.772632 1.104434 1.833404 0.000000 -0.000000 0.000000 -2.056435 -3.694505 14.837391 0.362356 4.030099 26.809331 2.989247 -6.139236 -18.553983 0.000000 -0.000000 0.000000 0.256670 3.764398 15.462576 2.124607 -2.715237 1.672576 -0.222275 -0.386695 3.146291 2.655902 2.723464 11.463883 -2.815057 -1.568192 18.076842 -29.226368 5.334426 1.634433 -57.099641 -4.647174 8.771669 9.679989 -22.384048 4.053198 -4.427430 -2.691630 -7.034110 27.506907 -0.998912 2.332722 53.933717 5.634253 11.670832 -17.119159 24.853669 -12.090241 4.014129 4.600707 -9.058311 
-0.278675 1.399234 0.980458 86.509029 -2.116649 79.199948 -0.244009 -4.061376 -8.545021 -3.348071 -13.672882 7.551905 -2.198744 1.102798 0.889907 0.000000 -0.000000 0.000000 -2.314870 -3.260356 13.018747 -0.294980 2.807129 32.478878 4.122796 -6.300478 -14.638807 0.000000 -0.000000 0.000000 -0.433619 3.500379 15.975988 2.303286 -2.791777 1.262249 -0.066618 -0.734774 3.178448 2.505883 2.298237 11.461898 -2.974104 -1.035860 17.990433 -28.962918 5.178968 1.530393 -56.993700 -4.850805 8.688258 9.633435 -21.806067 4.266637 -4.238763 -2.515308 -6.707961 27.720011 -1.362234 2.057707 53.931619 5.487682 11.726794 -17.632915 24.569530 -13.244581 3.686577 4.548617 -9.108472 
-0.257727 1.405738 0.985978 86.596143 -2.002211 78.910883 -0.902669 -4.263060 -6.486593 -3.245940 -14.071113 6.794768 -0.541960 1.678531 0.367717 0.000000 -0.000000 0.000000 -2.542948 -3.109750 10.138405 -0.560208 1.525341 39.022352 4.399610 -6.910341 -8.361556 0.000000 -0.000000 0.000000 -0.476520 2.911657 15.829916 2.401809 -2.593875 1.617993 -0.196424 -0.812901 2.977478 2.165764 1.702966 11.920824 -2.622632 -0.612248 17.809826 -28.410720 4.697235 1.979034 -57.110317 -5.063607 8.777440 9.764870 -21.702007 4.261790 -4.781329 -2.539768 -7.386666 27.437127 -1.232438 2.499380 54.651577 5.341373 11.727605 -18.406852 23.886053 -14.303667 3.644136 4.002325 -9.670133 
-0.239303 1.411514 0.990713 85.944702 -1.935316 78.978695 -1.214844 -3.947087 -4.732360 -3.209520 -14.949279 5.832300 0.684967 2.249095 -0.377734 0.000000 -0.000000 0.000000 -3.031412 -2.835274 6.124477 -1.054906 -0.400192 45.830180 4.110682 -7.838421 -1.703210 0.000000 -0.000000 0.000000 -0.560648 2.207177 16.112927 2.342256 -1.833289 1.192814 -0.267698 -0.796573 2.912362 1.947370 1.367664 12.215612 -2.506989 0.223712 17.502911 -28.138854 4.648003 2.153459 -56.500195 -5.175407 8.770203 9.620622 -22.925297 4.773900 -4.821238 -2.605002 -7.103631 27.220759 -1.402949 2.650541 54.958868 5.017520 11.954478 -18.296696 24.234815 -14.696851 3.585298 4.007197 -9.883015 
-0.222485 1.416041 0.993933 85.143420 -2.121561 78.839924 -1.280516 -3.405529 -2.791072 -3.484154 -14.803666 4.573881 1.139215 2.497852 -0.685683 0.000000 -0.000000 0.000000 -3.703585 -2.648437 2.498006 -1.780815 -2.398341 51.739070 3.473032 -9.911418 1.050648 0.000000 -0.000000 0.000000 -1.189206 1.584680 16.542474 2.328167 -1.273547 1.156020 -0.228086 -0.774673 2.828247 2.051469 1.357464 12.050206 -2.618007 0.502700 17.177513 -27.653765 4.513195 2.589568 -55.949265 -5.615823 8.573878 9.006775 -24.446792 5.320801 -6.208907 -2.255642 -8.601650 27.403346 -0.947521 2.874689 54.968387 5.174831 12.399454 -18.297494 24.271067 -14.221095 3.928154 3.181395 -9.140452 
-0.208137 1.418697 0.996192 84.739157 -1.957852 78.996169 -0.892599 -2.596676 -1.555632 -3.864095 -15.177834 3.666479 1.007811 2.271197 -1.258835 0.000000 -0.000000 0.000000 -3.799033 -2.990424 -1.234481 -3.396303 -5.003709 56.555273 1.735629 -13.399905 -1.562221 0.000000 -0.000000 0.000000 -1.521023 0.787295 16.918606 2.388541 -0.956588 0.812802 -0.265115 -0.973079 2.880417 2.524179 2.035720 11.566984 -3.164973 0.484866 17.553823 -27.667904 4.559035 2.672353 -54.457893 -6.377862 8.102967 9.074548 -26.525501 6.057877 -7.740767 -2.499363 -7.536131 27.822393 -0.747012 2.672239 54.975592 5.180382 12.698723 -18.293138 24.875165 -13.614181 4.513573 3.175046 -7.938496 
